<?xml version="1.0" encoding="UTF-8"?>
<svg xmlns="http://www.w3.org/2000/svg" width="18" height="18" viewBox="0 0 18 18">
  <g
    fill="none"
    stroke="#000000"
    stroke-width="1.45"
    stroke-linecap="round"
    stroke-linejoin="round"
  >
    <path data-role="lasso-quadrant" d="M7.7 2.5C5.65 2.5 4.05 3.5 3.5 5.25C3.37 5.65 3.3 5.9 3.3 6.1"/>
    <path data-role="lasso-quadrant" d="M10.3 2.5C12.35 2.5 13.95 3.5 14.5 5.25C14.63 5.65 14.7 5.9 14.7 6.1"/>
    <path data-role="lasso-quadrant" d="M3.3 8.9C3.3 9.1 3.37 9.35 3.5 9.75C4.05 11.5 5.65 12.5 7.7 12.5"/>
    <path data-role="lasso-quadrant" d="M10.3 12.5C12.35 12.5 13.95 11.5 14.5 9.75C14.63 9.35 14.7 9.1 14.7 8.9"/>
    <path data-role="lasso-tail" d="M12.45 11.9C13.45 12.15 14.5 13 15.25 14.25"/>
  </g>
  <path d="M5.7 5.5h6.6M5.7 7.5h5.6M5.7 9.5h4.4" fill="none" stroke="#000000" stroke-width="1.2" stroke-linecap="round"/>
</svg>
